<?xml version="1.0" encoding="UTF-8"?><svg id="Layer_1" xmlns="http://www.w3.org/2000/svg" viewBox="0 0 263.62 127.56"><defs><style>.cls-1{fill:#fff;}</style></defs><path class="cls-1" d="m31.31,28.53v-4.76c-2.97,1.95-6.88,2.72-11.56,3.57-4.67.85-7.65,1.96-7.65,5.44,0,2.97,2.21,4.67,7.39,4.67,6.97,0,11.81-3.49,11.81-8.92M1.15,33.2c0-9.77,8.75-11.98,17-13.17,9.09-1.27,13.17-2.46,13.17-6.12,0-3.14-2.8-4.59-7.82-4.59s-8.16,1.7-9.18,5.35H3.19C4.46,6.61,11.43.49,23.41.49c14.19,0,18.61,6.71,18.61,15.29v20.31c0,4.25.94,7.65,1.53,9.26h-10.54c-.51-1.11-1.11-3.06-1.36-6.46-2.55,4.42-7.31,7.39-14.7,7.39-7.99,0-15.81-3.74-15.81-13.09"/><path class="cls-1" d="m46.1,31.84h10.71c.85,3.74,4.42,5.61,9.94,5.61,5.1,0,8.58-1.78,8.58-4.59,0-3.31-2.89-3.74-10.54-5.1-8.16-1.44-17.5-2.8-17.5-13.68,0-7.31,6.03-13.6,18.19-13.6,10.71,0,17.42,5.18,18.61,13.09h-10.71c-.68-2.04-2.97-4.25-8.33-4.25-4.93,0-7.39,1.78-7.39,4.16,0,2.89,2.89,3.48,9.26,4.59,8.07,1.45,18.78,2.55,18.78,14.28,0,8.5-7.22,14.02-18.95,14.02-12.75,0-20.23-6.29-20.65-14.53"/><path class="cls-1" d="m123.68,23.6c0-8.5-5.1-13.6-11.3-13.6s-11.3,5.1-11.3,13.6,5.1,13.26,11.3,13.26,11.3-4.93,11.3-13.26m-22.94-15.21c2.38-4.33,7.05-7.9,13.94-7.9,10.71,0,20.05,9.77,20.05,23.03s-9.01,22.86-20.05,22.86c-6.54,0-11.39-3.4-13.6-7.31v24.05h-10.71V1.59h10.37v6.8Z"/><path class="cls-1" d="m149.49,19.27h21.5c-1.11-6.03-5.1-9.43-10.71-9.43-5.1,0-9.43,3.49-10.79,9.43m-.25,7.65c1.02,6.63,5.44,9.94,11.9,9.94,3.99,0,7.05-1.45,8.67-4.08h11.47c-2.55,8.75-10.11,13.6-20.14,13.6-12.83,0-23.03-9.6-23.03-22.86S147.96.49,160.28.49c13.85,0,23.45,11.47,21.92,26.43h-32.97Z"/><path class="cls-1" d="m197.25,8.48c2.04-5.18,7.22-7.99,12.58-7.99,9.69,0,15.64,7.14,15.64,19.12v25.75h-10.71v-25.75c0-5.35-2.3-9.26-8.33-9.26s-8.84,3.91-8.84,9.26v25.75h-10.71V1.59h10.37v6.88Z"/><g><path class="cls-1" d="m7.86,88.15c2.63-4.25,6.88-6.97,11.9-6.97,5.44,0,10.11,2.72,12.49,7.99,2.8-4.84,6.88-7.99,13.34-7.99,8.92,0,14.62,5.78,14.62,16.48v28.38h-6.97v-28.3c0-6.88-3.57-10.03-9.35-10.03s-9.69,3.91-9.69,10.28v28.04h-6.97v-28.3c0-6.88-3.65-10.03-9.26-10.03s-9.86,3.99-9.86,10.28v28.04H1.15v-43.76h6.71v5.87Z"/><path class="cls-1" d="m97.61,100.3c-.93-8.84-6.29-12.83-12.58-12.83-5.86,0-12.07,3.74-13.76,12.83h26.34Zm-33.82,3.91c0-13.34,9.43-23.03,21.24-23.03,10.96,0,20.82,8.67,20.39,25.15h-34.41c.77,9.69,7.31,14.45,14.28,14.45,6.03,0,10.03-2.72,11.73-6.97h7.39c-2.04,7.65-9.26,13.26-19.12,13.26-12.15,0-21.5-9.35-21.5-22.86"/><path class="cls-1" d="m143.07,104.3c0-10.71-6.29-16.74-13.77-16.74s-13.85,6.03-13.85,16.74,6.29,16.4,13.85,16.4,13.77-5.86,13.77-16.4m-34.75-.26c0-12.58,8.33-22.86,19.88-22.86,6.88,0,12.24,4.08,14.87,8.92v-27.27h6.97v63.22h-6.71v-8.24c-2.72,5.44-8.33,9.26-15.13,9.26-11.55,0-19.88-10.28-19.88-23.03"/><path class="cls-1" d="m163.89,126.05h-6.97v-43.76h6.97v43.76Zm.02-50.54h-7v-8.45h7v8.45Z"/><g><path class="cls-1" d="m168.72,104.3c0-13.26,9.35-23.11,21.07-23.11,9.52,0,16.48,5.52,18.78,14.45h-7.39c-1.87-5.1-5.86-8.07-11.39-8.07-7.82,0-13.85,6.03-13.85,16.74s6.03,16.4,13.85,16.4c5.61,0,9.69-3.14,11.39-8.07h7.39c-2.04,8.58-9.09,14.45-18.78,14.45-11.73,0-21.07-9.69-21.07-22.77"/><path class="cls-1" d="m240.89,110.07v-7.31c-1.78,1.61-5.52,3.06-13.25,4.5-6.63,1.27-9.26,3.23-9.26,7.31s3.23,6.37,7.82,6.37c8.5,0,14.7-3.91,14.7-10.88m-29.4,4.76c0-8.41,6.63-11.9,15.89-13.34,8.75-1.36,13.51-2.3,13.51-6.88,0-5.01-3.23-7.05-9.6-7.05-5.35,0-9.77,2.29-10.37,7.31h-7.31c.51-8.16,7.39-13.68,17.76-13.68,11.39,0,16.49,5.27,16.49,13.43v22.6c0,3.48,1.02,7.14,1.7,8.84h-6.88c-.6-1.28-1.36-3.32-1.61-5.95-2.63,3.91-8.07,6.97-14.95,6.97-8.16,0-14.62-3.65-14.62-12.24"/></g><rect class="cls-1" x="255.51" y="62.83" width="6.97" height="63.22"/></g></svg>